<svg width="1665" height="1664" xmlns="http://www.w3.org/2000/svg" xmlns:xlink="http://www.w3.org/1999/xlink" overflow="hidden"><defs><clipPath id="clip0"><rect x="188" y="165" width="1665" height="1664"/></clipPath><radialGradient cx="-0.25" cy="-0.25" r="6.52261e+06" fx="0" fy="0" gradientUnits="userSpaceOnUse" spreadMethod="pad" id="fill1" gradientTransform="matrix(0.000360892 0 0 0.000360892 188 165)"><stop offset="0" stop-color="#3333FF"/><stop offset="0.49" stop-color="#8000FF"/><stop offset="0.65" stop-color="#8000FF"/><stop offset="1" stop-color="#CC00CC"/></radialGradient></defs><g clip-path="url(#clip0)" transform="translate(-188 -165)"><rect x="188" y="165" width="1665" height="1664" fill="url(#fill1)"/><path d="M477 641.263C477 536.736 561.736 452 666.263 452L1374.74 452C1479.26 452 1564 536.736 1564 641.263L1564 958.737C1564 1063.26 1479.26 1148 1374.74 1148L666.263 1148C561.736 1148 477 1063.26 477 958.737Z" stroke="#FFFFFF" stroke-width="137.5" stroke-miterlimit="8" fill="none" fill-rule="evenodd"/><path d="M0.475753-45.8309 19.0959-45.6376 38.1335-44.9765 56.96-43.927 75.9662-42.5265 112.81-38.5346 149.033-33.1999 183.904-26.514 201.126-22.6944 217.898-18.5681 234.139-14.1749 249.991-9.51261 265.378-4.6076 280.41 0.629941 294.829 6.13902 308.604 11.7988 322.071 17.8001 334.871 24.0937 347.05 30.6133 358.672 37.4842 369.74 44.6856 380.213 52.4023 389.87 60.4369 398.897 69.0338 407.242 78.3877 414.829 88.6694 421.24 99.8627 426.432 112.251 429.791 125.687 430.666 135.898 431.228 142.461 430.027 135.259 431.652 141.759 429.459 135.161 432.209 141.724 429.708 136.656 433.396 143.094 430.505 138.662 435.255 145.1 432.576 141.8 438.263 148.175 435.672 145.498 442.234 151.748 439.938 149.703 447.375 155.891 445.251 154.227 453.563 160.352 451.372 158.833 460.497 164.771 458.825 163.733 468.763 169.608 467.068 168.654 477.693 174.342 476.287 173.62 487.599 179.182 486.03 178.447 498.092 183.822 496.857 183.293 509.482 188.481 508.421 188.06 521.671 193.123 520.392 192.656 534.205 197.468 533.045 197.082 547.358 201.644 546.37 201.342 561.245 205.717 560.28 205.444 575.53 209.569 574.512 209.306 590.262 213.181 589.237 212.942 597.692 214.817C622.404 220.298 637.995 244.775 632.514 269.487 627.033 294.2 602.556 309.79 577.843 304.309L568.874 302.319 552.102 298.193 535.861 293.8 520.009 289.138 504.622 284.233 489.59 278.995 475.171 273.486 461.396 267.826 447.929 261.825 435.129 255.531 422.95 249.012 411.328 242.141 400.26 234.939 389.788 227.223 380.13 219.188 371.103 210.591 362.758 201.237 355.171 190.955 348.76 179.762 343.568 167.374 340.209 153.938 339.334 143.727 338.772 137.164 339.973 144.366 338.348 137.866 340.541 144.464 337.791 137.901 340.292 142.969 336.604 136.531 339.495 140.963 334.745 134.525 337.424 137.825 331.737 131.45 334.328 134.127 327.766 127.877 330.062 129.922 322.625 123.734 324.749 125.398 316.437 119.273 318.628 120.792 309.503 114.854 311.175 115.892 301.237 110.017 302.932 110.971 292.307 105.283 293.713 106.005 282.401 100.443 283.97 101.178 271.908 95.8026 273.143 96.3316 260.518 91.1441 261.579 91.5647 248.329 86.5022 249.608 86.969 235.795 82.1565 236.955 82.5432 222.642 77.9808 223.63 78.2834 208.755 73.9084 209.72 74.1808 194.47 70.0558 195.488 70.3186 179.738 66.4436 180.763 66.6835 164.701 63.121 165.995 63.3884 132.745 57.0135 134.697 57.3442 100.322 52.2817 102.063 52.5042 66.8754 48.6917 68.4444 48.8344 50.6319 47.5219 51.4488 47.5748 33.5113 46.5748 34.472 46.6182 16.472 45.9932 17.5867 46.0184-0.475753 45.8309C-25.7874 45.5681-46.0936 24.8359-45.8309-0.475753-45.5681-25.7874-24.8359-46.0936 0.475753-45.8309ZM587.768 259.563 511.698 112.857 770 279.625 481.605 386.206Z" fill="#FFFFFF" transform="matrix(1 0 0 -1 660 976.583)"/><path d="M599 1565 1461.57 1565" stroke="#FFFFFF" stroke-width="137.5" stroke-linecap="square" stroke-miterlimit="8" fill="none" fill-rule="evenodd"/><path d="M913 1360 1167.95 1360" stroke="#FFFFFF" stroke-width="137.5" stroke-linecap="square" stroke-miterlimit="8" fill="none" fill-rule="evenodd"/></g></svg>